<?xml version="1.0" encoding="utf-8"?>
<!-- Generator: Adobe Illustrator 26.5.0, SVG Export Plug-In . SVG Version: 6.00 Build 0)  -->
<svg version="1.1" id="Layer_1" xmlns="http://www.w3.org/2000/svg" xmlns:xlink="http://www.w3.org/1999/xlink" x="0px" y="0px"
	 viewBox="0 0 83 57.7" style="enable-background:new 0 0 83 57.7;" xml:space="preserve">
<style type="text/css">
	.st0{fill:#FFFFFF;}
</style>
<g id="Layer_2_00000051360442707895658700000013401347048656259469_">
	<g id="Layer_1-2">
		<path class="st0" d="M-12.1,80.8h1.6l3.4,8h-1.8l-0.7-1.8H-13l-0.7,1.8h-1.8L-12.1,80.8z M-10.3,85.5l-1.1-2.6l-1.1,2.6H-10.3z"/>
		<polygon class="st0" points="13.5,80.8 15.1,80.8 18.8,85.7 18.8,80.8 20.6,80.8 20.6,88.8 19.1,88.8 15.2,83.7 15.2,88.8 
			13.5,88.8 		"/>
		<polygon class="st0" points="47,80.8 48.6,80.8 52.4,85.7 52.4,80.8 54.1,80.8 54.1,88.8 52.6,88.8 48.7,83.7 48.7,88.8 47,88.8 
					"/>
		<polygon class="st0" points="-16.7,80.8 -17.9,86 -19.4,80.8 -21.2,80.8 -22.8,86.1 -23.9,80.8 -25.9,80.8 -24,88.8 -22,88.8 
			-20.4,83.9 -18.8,88.8 -16.9,88.8 -14.9,80.8 		"/>
		<path class="st0" d="M-1.5,83.1c-0.5-0.6-1.1-0.9-1.9-0.8c-1,0-1.4,0.6-1.4,0.8c0,0.3,0.2,0.6,0.7,0.7c0.5,0.1,1.5,0.4,2.1,0.6
			c1.7,0.6,1.8,1.5,1.8,2.2c0,1.3-1.4,2.4-3.2,2.4c-1.3,0.1-2.5-0.5-3.3-1.6l1.4-1c0.4,0.6,1.1,1,1.8,1.1c0.9,0,1.4-0.4,1.4-0.9
			s-0.3-0.6-1-0.8c-0.7-0.2-1.4-0.4-2-0.6c-0.9-0.2-1.5-1-1.5-1.9c0-1.6,1.6-2.5,3.2-2.5c1.2,0,2.3,0.5,3,1.4L-1.5,83.1z"/>
		<polygon class="st0" points="6.3,88.8 6.3,85.5 3.2,85.5 3.2,88.8 1.3,88.8 1.3,80.8 3.2,80.8 3.2,84.1 6.3,84.1 6.3,80.8 
			8.2,80.8 8.2,88.8 		"/>
		<rect x="9.9" y="80.8" class="st0" width="1.9" height="8"/>
		<path class="st0" d="M25.7,84.1H30v0.7c0.1,2.1-1.5,4-3.6,4.1c-0.1,0-0.3,0-0.4,0c-2.2,0.1-4.1-1.6-4.2-3.8c0-0.1,0-0.2,0-0.3
			c0-2.3,1.9-4.1,4.1-4.1c0,0,0.1,0,0.1,0c1.3,0,2.6,0.6,3.3,1.6L28,83.3c-0.5-0.6-1.2-1-2-1c-1.3,0-2.3,1.1-2.3,2.4
			c0,0.1,0,0.1,0,0.2c-0.1,1.3,0.9,2.5,2.2,2.6c0,0,0.1,0,0.1,0c1.1,0.1,2.1-0.8,2.1-1.9c0,0,0,0,0,0h-2.4V84.1z"/>
		<polygon class="st0" points="34.8,82.4 34.8,88.8 32.9,88.8 32.9,82.4 30.5,82.4 30.5,80.8 37.1,80.8 37.1,82.4 		"/>
		<path class="st0" d="M41.8,82.3c-1.3,0-2.3,1-2.3,2.3c0,0.1,0,0.2,0,0.2c-0.1,1.3,0.8,2.4,2,2.5c1.3,0.1,2.4-0.8,2.5-2
			c0-0.2,0-0.3,0-0.5c0.1-1.3-0.8-2.4-2.1-2.5C41.9,82.3,41.8,82.3,41.8,82.3 M41.8,89c-2.2,0.1-4.1-1.7-4.2-3.9c0-0.1,0-0.1,0-0.2
			c0-2.3,1.9-4.2,4.2-4.2s4.2,1.9,4.2,4.2c0,2.2-1.7,4.1-4,4.1C41.9,89,41.8,89,41.8,89"/>
		<path class="st0" d="M17.7,116.9l1.4,4.2l-3.6-2.6l-3.5,2.6l1.3-4.2l-3.6-2.5l4.4,0l1.3-4.2l1.4,4.2h4.4L17.7,116.9z M3.8,115.2
			c0,7.2-4.9,11.3-12.3,11.3h-5v-22.7h5c7.4,0,12.3,4.1,12.3,11.3V115.2z M47.8,121.7c-2.7,3.2-5.4,5.4-10.1,5.4
			c-6.3,0-10.6-5.2-10.6-11.9v-0.1c0-6.5,4.4-11.8,10.7-11.8c4.3,0,7.2,2,9.8,5.2l9.3-7.2c-4-5.5-9.8-9.3-18.9-9.3
			c-10.8,0-19.4,6.6-22.4,15.9c-2.8-9-11.3-15-24.1-15h-17.2v44.7h17c12.8,0,21.4-6.1,24.3-15.1c2.9,9.6,11.9,16.2,22,16
			c9.9,0,15.5-4.3,19.8-10.1L47.8,121.7z"/>
		<polygon class="st0" points="53,136.5 52.3,136.5 52.3,136 54.3,136 54.3,136.5 53.5,136.5 53.5,138.4 53,138.4 		"/>
		<polygon class="st0" points="54.7,136 55.3,136 55.9,137 56.5,136 57.1,136 57.1,138.4 56.6,138.4 56.6,136.8 55.9,137.8 
			55.9,137.8 55.2,136.8 55.2,138.4 54.7,138.4 		"/>
	</g>
</g>
</svg>
